<svg xmlns="http://www.w3.org/2000/svg" fill="none" viewBox="0 0 586 414"><defs/><g filter="url(#filter0_d)"><rect width="574" height="402" x="6" y="5" fill="white" rx="20"/></g><rect width="135" height="40" x="273.5" y="230.5" fill="#FD6559" stroke="#FD6559" rx="2.5"/><rect width="53" height="53" x="242.5" y="224.5" fill="white" stroke="#FD6559" rx="26.5"/><path fill="white" d="M325.8 256.2c-.9 0-1.6-.2-2.2-.5-.7-.4-1.2-.8-1.5-1.4-.4-.6-.5-1.3-.5-2.1v-5c0-.8.1-1.5.5-2 .3-.7.8-1.1 1.5-1.4.6-.4 1.3-.5 2.2-.5.8 0 1.6.1 2.2.4.6.4 1.1.8 1.5 1.4.3.6.5 1.3.5 2v.2h-.2l-.9.1c-.1 0-.2 0-.2-.2 0-.9-.2-1.5-.8-2a3 3 0 00-2.1-.8 3 3 0 00-2.2.7c-.5.6-.8 1.2-.8 2v5.1c0 .9.3 1.5.8 2a3 3 0 002.2.8 3 3 0 002.1-.7c.6-.5.8-1.2.8-2v-.1l.2-.2h1l.1.2a4 4 0 01-.5 2.1c-.4.6-.9 1-1.5 1.4-.6.3-1.4.5-2.2.5zm10.3 0c-.9 0-1.6-.3-2.2-.7-.7-.5-1-1-1.3-1.9-.2-.5-.3-1.2-.3-2.2 0-.9.1-1.6.3-2.2.2-.7.6-1.3 1.2-1.8.7-.4 1.4-.7 2.3-.7.9 0 1.6.3 2.2.7.6.5 1 1 1.3 1.8.2.5.2 1.3.2 2.2 0 1 0 1.7-.2 2.2-.2.8-.7 1.4-1.3 1.9-.6.4-1.3.6-2.2.6zm0-1.2c.6 0 1-.1 1.5-.4.4-.4.7-.8.8-1.3l.2-1.9c0-.7 0-1.4-.2-1.8-.1-.5-.4-1-.8-1.3-.4-.3-1-.4-1.5-.4a2.3 2.3 0 00-2.3 1.7l-.2 1.8c0 .8 0 1.4.2 1.9 0 .5.4 1 .8 1.3.4.3.9.4 1.5.4zm12-11.4c0-.1 0-.2.2-.2h.9c.1 0 .2 0 .2.2v12.2l-.2.2h-1l-.1-.2v-.7h-.1l-1 .8-1.3.2c-.8 0-1.5-.2-2.1-.6-.6-.4-1-1-1.2-1.8a8 8 0 01-.2-2.3c0-1 0-1.7.2-2.2.2-.8.6-1.4 1.2-1.8.5-.4 1.3-.7 2.1-.7a3 3 0 012.3 1.2v-4.3zm-.3 10l.2-.8a9.8 9.8 0 00-.3-3.6 2 2 0 00-.7-1c-.3-.2-.7-.3-1.2-.3-.4 0-.8 0-1.2.3a2 2 0 00-.8 1l-.3.9v2.7c0 .3.1.6.3.8.1.5.4.8.7 1 .4.3.8.4 1.3.4s1-.1 1.2-.3c.4-.3.6-.6.8-1zm5.3-8.4a1 1 0 01-1-1c0-.3.1-.5.3-.7.2-.2.4-.3.7-.3.3 0 .5.1.7.3.2.2.3.4.3.7a1 1 0 01-1 1zm-.5 10.8c-.1 0-.2 0-.2-.2v-8.7c0-.2 0-.2.2-.2h1l.1.2v8.7c0 .1 0 .2-.2.2h-.9zm8-9.2c1 0 1.7.2 2.3.8.6.6.9 1.3.9 2.3v6l-.2.1h-1l-.1-.2v-5.7c0-.6-.2-1.2-.6-1.6a2 2 0 00-1.6-.6c-.6 0-1.2.2-1.6.6-.4.4-.6 1-.6 1.6v5.7c0 .1 0 .2-.2.2h-.9c-.1 0-.2 0-.2-.2v-8.7l.2-.2h1l.1.2V247.9c.6-.8 1.4-1.1 2.5-1.1zm11.6.3l.1-.2h1l.1.2v8.6c0 1.3-.4 2.3-1.1 3a5 5 0 01-3.2.9h-.6c-.2 0-.2-.1-.2-.2v-.9-.1h.7c1 0 1.9-.2 2.4-.7.5-.4.8-1 .8-2v-.7h-.1c-.6.7-1.4 1-2.4 1-.8 0-1.5-.2-2-.6a3 3 0 01-1.3-1.8l-.2-2.2v-1.3l.2-1c.3-.7.6-1.3 1.2-1.7.6-.4 1.2-.7 2-.7 1.1 0 2 .4 2.5 1.1v-.7zm-.1 6.1v-.6a27.4 27.4 0 000-3 2 2 0 00-.8-1.2 2 2 0 00-1.4-.5c-.6 0-1 .1-1.4.4-.4.4-.7.8-.8 1.3-.2.4-.2 1-.2 1.8 0 .9 0 1.5.2 1.8 0 .5.3 1 .7 1.3.4.3 1 .5 1.5.5a2.1 2.1 0 002.2-1.8z"/><path stroke="#42C657" stroke-width="2" d="M197 89.5h22.5a5 5 0 015 5v29"/><rect width="136" height="41" x="128" y="122" fill="#42C657" rx="3"/><rect width="53" height="53" x="97.5" y="116.5" fill="white" stroke="#42C657" rx="26.5"/><rect width="10" height="10" x="219.5" y="118.5" fill="white" stroke="#42C657" rx="5"/><path stroke="#42C657" stroke-linecap="round" d="M111 145h13.5"/><path stroke="#42C657" d="M124 148.5l2.5 2.5m0 0v0a2 2 0 000 3l8 7.1c.8.8 2.1.8 3 0v0c.8-.9.8-2.3-.1-3l-7.8-7.2c-1-.8-2.3-.7-3.1.1v0z"/><rect width="145" height="41" x="53" y="68" fill="#33A9FF" rx="3"/><rect width="53" height="53" x="24.5" y="62.5" fill="white" stroke="#33A9FF" rx="26.5"/><path stroke="#33A9FF" stroke-linecap="round" d="M49.5 79.5H57m-7.5 2H54M49.5 86.5H57m-7.5 2H54M49.5 93.5H57m-7.5 2H54"/><path fill="white" d="M91.5 94l-.2-.1-2.7-5.6h-3.1v5.5c0 .1-.1.2-.3.2h-.9s-.2 0-.2-.2V81.6l.2-.2H89c1 0 1.9.3 2.5 1 .6.6 1 1.4 1 2.5 0 .8-.3 1.5-.7 2.1-.5.6-1.1 1-1.9 1.2l2.7 5.6c0 .2 0 .2-.2.2h-1zm-6-11.5V87.3h3.3c.7 0 1.3-.2 1.7-.6.5-.5.7-1 .7-1.7s-.2-1.3-.7-1.7c-.4-.5-1-.7-1.7-.7h-3.3zm16.3 5.4l.1 1.3v.6l-.2.1H96V91.3c.2.5.5 1 1 1.3.3.3.9.4 1.6.4.5 0 1 0 1.3-.3.4-.2.7-.6.9-1 0 0 .2-.1.2 0l.7.4c.1 0 .2.1.1.2-.3.6-.7 1-1.3 1.4-.6.3-1.3.5-2.1.5-.9 0-1.6-.3-2.1-.7-.6-.3-1-.9-1.3-1.6-.2-.6-.3-1.4-.3-2.5a33.2 33.2 0 01.2-2c.2-.9.6-1.5 1.2-2 .6-.4 1.4-.7 2.2-.7 1.1 0 2 .3 2.5.9.6.5 1 1.3 1.1 2.3zm-3.6-2c-.6 0-1 .1-1.4.4-.4.3-.7.7-.8 1.3l-.1 1.2h4.7v-1.2c-.2-.5-.5-1-.9-1.3-.4-.3-.9-.4-1.5-.4zm12-.8v-.2h1c.1 0 .2 0 .2.2v12.2c0 .1 0 .2-.2.2h-1V93h-.1a2.7 2.7 0 01-2.4 1c-.8 0-1.5-.2-2.1-.6-.6-.4-1-1-1.2-1.8l-.2-2.3c0-1 0-1.7.2-2.2.3-.8.6-1.4 1.2-1.8.6-.4 1.3-.7 2.1-.7a2.9 2.9 0 012.4 1.2V85zm-.4 6.6l.2-.9a10.2 10.2 0 00-.2-3.5 1.9 1.9 0 00-2-1.4c-.4 0-.9 0-1.3.3a2 2 0 00-.7 1 3 3 0 00-.3 1 9.2 9.2 0 000 2.6l.4 1a2 2 0 002 1.2 2 2 0 001.2-.3l.7-1zm10.1-6.6c0-.1 0-.2.2-.2h.9c.1 0 .2 0 .2.2v8.7c0 .1 0 .2-.2.2h-1l-.1-.2V93c-.6.8-1.4 1.1-2.5 1.1-.6 0-1 0-1.6-.3-.5-.3-.8-.6-1.1-1a3 3 0 01-.5-1.6V85l.2-.2h1l.1.2v5.7c0 .7.2 1.2.6 1.6.4.4 1 .6 1.6.6.7 0 1.2-.2 1.6-.6.4-.4.6-1 .6-1.6V85zm5-1.9a1 1 0 01-1-1c0-.3 0-.5.3-.7.2-.2.4-.3.7-.3.3 0 .5.1.7.3.2.2.3.4.3.7a1 1 0 01-1 1zm-.5 10.8c-.1 0-.2 0-.2-.2v-8.7c0-.2 0-.2.2-.2h1l.1.2v8.7c0 .1 0 .2-.2.2h-.9zm7.9-9.2c.4 0 .7 0 1 .2.1 0 .2.2.1.3l-.2.9s0 .1-.2 0H132.1c-.7 0-1.2.2-1.6.7-.4.4-.6 1-.6 1.6v5.3c0 .1 0 .2-.2.2h-.9c-.1 0-.2 0-.2-.2v-8.7c0-.1 0-.2.2-.2h1l.1.2v1.1l1-1c.4-.3.9-.4 1.4-.4zm9.8 3.1v1.9l-.1.1h-5.8l-.1.1.1 1.3c.1.5.4 1 .8 1.3.5.3 1 .4 1.7.4.5 0 1 0 1.3-.3.4-.2.7-.6 1-1 0 0 0-.1.2 0l.7.4s.1.1 0 .2c-.2.6-.7 1-1.3 1.4-.6.3-1.3.5-2 .5-1 0-1.6-.3-2.2-.7-.6-.3-1-.9-1.2-1.6-.3-.6-.4-1.4-.4-2.5a33.2 33.2 0 01.2-2c.2-.9.6-1.5 1.2-2 .6-.4 1.4-.7 2.3-.7 1 0 1.9.3 2.5.9.6.5 1 1.3 1 2.3zm-3.6-2c-.6 0-1.1.1-1.5.4-.4.3-.6.7-.8 1.3l-.1 1.2h4.7v-1.2c-.1-.5-.4-1-.8-1.3-.4-.3-1-.4-1.5-.4zm15.4-1.1c1 0 1.6.2 2.1.8.6.5.8 1.3.8 2.2v6c0 .1 0 .2-.2.2h-.9l-.1-.2V88c0-.6-.2-1.1-.6-1.5a2 2 0 00-1.5-.6c-.6 0-1.1.2-1.5.6a2 2 0 00-.6 1.5v5.8c0 .1 0 .2-.2.2h-1v-6c0-.6-.3-1.1-.6-1.5a2 2 0 00-1.5-.6 2 2 0 00-1.6.6c-.3.3-.5.9-.5 1.5v5.8c0 .1 0 .2-.2.2h-1l-.1-.2v-8.7c0-.1 0-.2.2-.2h.9c.1 0 .2 0 .2.2v.7l1-.8 1.5-.2c.6 0 1.1 0 1.6.3l1 1.1c0 .1 0 .1 0 0 .3-.5.7-.8 1.2-1 .5-.3 1-.4 1.6-.4zm12.5 3.1l.1 1.3v.6l-.2.1h-5.8V91.3c.2.5.5 1 1 1.3.3.3.9.4 1.6.4.5 0 1 0 1.3-.3.4-.2.7-.6.9-1 0 0 .1-.1.2 0l.7.4c.1 0 .2.1.1.2-.3.6-.7 1-1.3 1.4-.6.3-1.3.5-2.1.5-.9 0-1.6-.3-2.1-.7-.6-.3-1-.9-1.3-1.6-.2-.6-.3-1.4-.3-2.5a33.2 33.2 0 01.2-2c.2-.9.6-1.5 1.2-2 .6-.4 1.4-.7 2.2-.7 1.1 0 2 .3 2.5.9.6.5 1 1.3 1.1 2.3zm-3.6-2c-.6 0-1 .1-1.4.4-.4.3-.7.7-.8 1.3l-.1 1.2h4.7v-1.2c-.2-.5-.5-1-.9-1.3-.4-.3-.9-.4-1.5-.4zm10-1.1c1 0 1.8.2 2.3.8.6.6.9 1.3.9 2.3v6l-.2.1h-1v-5.9c0-.6-.3-1.2-.7-1.6a2 2 0 00-1.5-.6c-.7 0-1.2.2-1.7.6-.4.4-.6 1-.6 1.6v5.7l-.1.2h-1l-.1-.2v-8.7l.1-.2h1l.1.2V85.9h.1c.5-.8 1.3-1.1 2.4-1.1zm10 1l-.1.2h-2.1v5.3c0 .6 0 1 .3 1.3.3.2.7.3 1.3.3h.4c.1 0 .2 0 .2.2v.7c0 .1 0 .2-.2.2h-.7c-.8 0-1.5-.1-2-.5-.4-.3-.6-.9-.6-1.8V86h-1.1c-.2 0-.2-.1-.2-.2V85c0-.1 0-.2.2-.2h1.1v-2.2l.2-.1h.9l.2.1v2.1h2c.2 0 .2.2.2.3v.7zm5.5 8.3c-.7 0-1.3-.1-1.8-.3a3 3 0 01-1.2-.9 2 2 0 01-.4-1.2v-.2c0-.1 0-.2.2-.2h.8c.2 0 .2 0 .2.2v.1c0 .4.2.8.6 1 .4.4 1 .5 1.6.5.6 0 1.1-.1 1.5-.4.4-.3.6-.7.6-1a1 1 0 00-.3-.8 2 2 0 00-.7-.5L188 90l-1.6-.6c-.5-.2-.8-.4-1.1-.8a2 2 0 01-.5-1.3c0-.7.3-1.4 1-1.8.5-.5 1.3-.7 2.3-.7.7 0 1.3.1 1.8.3.5.2.9.5 1.2 1 .2.3.4.7.4 1.2 0 .2 0 .2-.2.2h-.9l-.1-.2c0-.4-.2-.8-.6-1-.4-.3-1-.5-1.6-.5-.6 0-1.1.2-1.5.4-.3.3-.5.6-.5 1s.1.8.5 1l1.7.6 1.7.6c.4.2.8.4 1 .8.4.3.6.8.6 1.3 0 .8-.3 1.4-1 1.9-.6.5-1.4.7-2.4.7z"/><rect width="136" height="41" x="339" y="284" fill="#198BDD" rx="3"/><rect width="53" height="53" x="308.5" y="278.5" fill="white" stroke="#198BDD" rx="26.5"/><path stroke="#198BDD" d="M325.5 305l2 2 5.5-5.5m6.5 1.5l3.5 3.5m0-3.5l-3.5 3.5m5.5-1.8v0c0 2.1-1.7 3.8-3.8 3.8v0c-2 0-3.7-1.7-3.7-3.8v0c0-2 1.7-3.7 3.8-3.7v0c2 0 3.7 1.7 3.7 3.8zm-13.5 0v0c0 2.1-1.7 3.8-3.8 3.8v0c-2 0-3.7-1.7-3.7-3.8v0c0-2 1.7-3.7 3.8-3.7v0c2 0 3.7 1.7 3.7 3.8z"/><path fill="white" d="M395.5 298.4c.1 0 .2 0 .2.2v.8l-.2.1H392V310.8c0 .1-.1.2-.3.2h-.9c-.1 0-.2 0-.2-.2v-11.2h-3.4l-.2-.2v-.8c0-.1 0-.2.2-.2h8.3zm8.1 6.5l.1 1.3v.6l-.2.1h-5.8V308.3c.2.5.5 1 .9 1.3.4.3 1 .4 1.6.4.6 0 1 0 1.4-.3.4-.2.7-.6.9-1 0 0 .1-.1.2 0l.7.4c.1 0 .2.1.1.2-.3.6-.7 1-1.3 1.4-.6.3-1.3.5-2.1.5-.9 0-1.6-.3-2.2-.6-.5-.4-1-1-1.2-1.7-.2-.6-.3-1.4-.3-2.5a33.2 33.2 0 01.1-2c.2-.9.7-1.5 1.3-2 .6-.4 1.3-.7 2.2-.7 1.1 0 2 .3 2.5.9.6.5 1 1.3 1.1 2.3zm-3.6-2c-.6 0-1 .1-1.5.4-.3.3-.6.7-.7 1.3l-.2 1.2h4.8v-1.2c-.2-.5-.5-1-.9-1.3-.4-.3-.9-.4-1.5-.4zm9 8.2c-.6 0-1.2-.1-1.7-.3a3 3 0 01-1.2-.9 2 2 0 01-.4-1.2v-.2l.1-.2h.9c.1 0 .2 0 .2.2v.1c0 .4.2.8.6 1 .4.4 1 .5 1.6.5.6 0 1-.1 1.5-.4.4-.3.5-.7.5-1a1 1 0 00-.3-.8 2 2 0 00-.7-.5l-1.2-.4-1.7-.6c-.4-.2-.8-.4-1-.8a2 2 0 01-.5-1.3c0-.7.3-1.4 1-1.8.5-.5 1.3-.7 2.3-.7.6 0 1.2.1 1.7.3.5.2 1 .5 1.2 1 .3.3.4.7.4 1.2l-.1.2h-.9c-.1 0-.2 0-.2-.2 0-.4-.2-.8-.6-1-.4-.3-.9-.5-1.5-.5s-1.1.2-1.5.4c-.4.3-.6.6-.6 1s.2.8.6 1l1.6.6 1.7.6c.5.2.8.4 1.2.8.3.3.4.8.4 1.3 0 .8-.3 1.4-.9 1.9-.6.5-1.4.7-2.4.7zm9.8-8.3s0 .2-.2.2h-2v5.3c0 .6 0 1 .3 1.3.3.2.7.3 1.2.3h.5c.1 0 .2 0 .2.2v.7c0 .1 0 .2-.2.2h-.7c-.8 0-1.5-.1-2-.5-.4-.3-.6-.9-.6-1.8V303H414l-.2-.2v-.7l.2-.2h1.1v-2.2l.3-.1h.9l.1.1v2.1h2.1c.2 0 .2.2.2.3v.7zm3.4-2.6a1 1 0 01-1-1c0-.3 0-.5.2-.7.2-.2.5-.3.8-.3.2 0 .5.1.7.3.2.2.3.4.3.7a1 1 0 01-1 1zm-.5 10.8c-.2 0-.2 0-.2-.2v-8.7c0-.2 0-.2.2-.2h.9l.1.2v8.7l-.1.2h-1zm8-9.2c1 0 1.7.2 2.2.8.6.6 1 1.3 1 2.3v6l-.3.1h-.9c-.1 0-.2 0-.2-.2v-5.7c0-.6-.2-1.2-.6-1.6a2 2 0 00-1.5-.6c-.7 0-1.2.2-1.6.6-.4.4-.6 1-.6 1.6v5.7l-.2.2h-1l-.1-.2v-8.7c0-.1 0-.2.2-.2h.9c.1 0 .2 0 .2.2V302.9c.6-.8 1.4-1.1 2.5-1.1zm11.5.3c0-.1 0-.2.2-.2h.9c.1 0 .2 0 .2.2v8.6c0 1.3-.4 2.3-1.2 3a5 5 0 01-3.2.9h-.6l-.2-.2v-.9l.1-.1h.6c1.1 0 2-.2 2.4-.7.5-.4.8-1 .8-2v-.7c-.6.7-1.4 1-2.4 1-.8 0-1.5-.2-2.1-.6a3 3 0 01-1.2-1.8c-.2-.5-.3-1.2-.3-2.2v-1.3l.3-1c.2-.7.6-1.3 1.1-1.7.6-.4 1.3-.7 2-.7 1.1 0 2 .4 2.5 1.1h.1v-.7zm0 6.1v-.6a27.4 27.4 0 00-.1-3 2 2 0 00-.7-1.2 2 2 0 00-1.5-.5c-.5 0-1 .1-1.4.5-.4.3-.6.7-.8 1.2l-.2 1.8c0 .9 0 1.5.2 1.8.1.5.4 1 .8 1.3.4.3.9.5 1.4.5a2.1 2.1 0 002.2-1.8z"/><rect width="135" height="40" x="199.5" y="176.5" fill="#FFDA59" stroke="#FFDA59" rx="2.5"/><rect width="53" height="53" x="168.5" y="170.5" fill="white" stroke="#FFDA59" rx="26.5"/><path stroke="#FFDA59" d="M203 188l7 3v8m-6.5 10.5l-8 3-7.5-3m-.5-21.5l-7.5 2.5v8.5"/><path fill="white" d="M248.3 202c-.1 0-.2 0-.2-.2v-12.2c0-.1 0-.2.2-.2h4.2a4 4 0 012.9 1c.7.6 1 1.4 1 2.5v5.6c0 1-.3 2-1 2.6a4 4 0 01-2.9.9h-4.2zm1-1.2H252.7c.8 0 1.4-.1 1.8-.6.5-.5.8-1 .8-1.8V193c0-.8-.3-1.4-.7-1.9-.5-.5-1.1-.7-1.9-.7h-3.1-.1v10.3zM266 196v1.9l-.1.1H260l-.1.1v1.3c.2.5.5 1 1 1.3.4.3 1 .4 1.6.4.5 0 1 0 1.3-.3.4-.2.7-.6 1-1 0 0 0-.1.2 0l.7.4v.2c-.3.6-.7 1-1.3 1.4-.6.3-1.3.5-2 .5-1 0-1.6-.3-2.2-.6-.6-.4-1-1-1.3-1.7-.2-.6-.3-1.4-.3-2.5a33.2 33.2 0 01.2-2c.2-.9.6-1.5 1.2-2 .6-.4 1.4-.7 2.3-.7 1 0 1.9.3 2.5.9.6.5 1 1.3 1 2.3zm-3.6-2c-.6 0-1.1.1-1.5.4-.4.3-.7.7-.8 1.3l-.1 1.2h4.7v-1.2c-.2-.5-.4-1-.8-1.3-.4-.3-1-.4-1.5-.4zm9 8.2c-.7 0-1.3-.1-1.8-.3a3 3 0 01-1.2-.9 2 2 0 01-.4-1.2v-.2c0-.1 0-.2.2-.2h.8c.2 0 .2 0 .2.2v.1c0 .4.2.8.6 1 .5.4 1 .5 1.6.5.6 0 1.1-.1 1.5-.4.4-.3.6-.7.6-1a1 1 0 00-.3-.8 2 2 0 00-.7-.5l-1.3-.4-1.6-.6c-.5-.2-.8-.4-1.1-.8a2 2 0 01-.4-1.3c0-.7.3-1.4.8-1.8.7-.5 1.4-.7 2.4-.7.7 0 1.3.1 1.8.3.5.2.9.5 1.2 1 .2.3.4.7.4 1.2 0 .2 0 .2-.2.2h-.9l-.1-.2c0-.4-.2-.8-.6-1-.4-.3-1-.5-1.6-.5-.6 0-1.1.2-1.5.4-.3.3-.5.6-.5 1s.2.8.5 1l1.7.6 1.7.6c.4.2.8.4 1.1.8.3.3.5.8.5 1.3 0 .8-.3 1.4-1 1.9-.6.5-1.4.7-2.4.7zm6.6-10.9a1 1 0 01-1-1c0-.3 0-.5.2-.7.2-.2.5-.3.8-.3.2 0 .5.1.7.3.2.2.3.4.3.7a1 1 0 01-1 1zm-.5 10.8c-.2 0-.2 0-.2-.2v-8.7c0-.2 0-.2.2-.2h.9s.2 0 .2.2v8.7l-.2.2h-1zm9.8-9l.2-.1h.9c.1 0 .2 0 .2.2v8.6c0 1.3-.4 2.3-1.2 3a5 5 0 01-3.2.9h-.6l-.2-.2v-.9l.1-.1h.6c1.1 0 2-.2 2.4-.7.5-.4.8-1 .8-2v-.7c-.6.7-1.4 1-2.4 1-.8 0-1.5-.2-2.1-.6a3 3 0 01-1.2-1.8c-.2-.4-.3-1.2-.3-2.2v-1.3l.3-1c.2-.7.6-1.3 1.1-1.7.6-.4 1.3-.7 2-.7 1.1 0 2 .4 2.5 1.1h.1v-.7zm0 6.2v-.6a27.4 27.4 0 00-.1-3 2 2 0 00-.7-1.2 2 2 0 00-1.5-.5c-.5 0-1 .1-1.4.4-.4.4-.6.8-.8 1.3l-.2 1.8c0 .9 0 1.5.2 1.8.1.5.4 1 .8 1.3.4.3.9.5 1.4.5a2.1 2.1 0 002.2-1.8zm7.8-6.4c1 0 1.7.2 2.3.8.6.6.8 1.3.8 2.3v6l-.1.1h-1l-.1-.2v-5.7c0-.6-.2-1.2-.6-1.6a2 2 0 00-1.6-.6c-.7 0-1.2.2-1.6.6-.4.4-.6 1-.6 1.6v5.7c0 .1 0 .2-.2.2h-.9c-.1 0-.2 0-.2-.2v-8.7c0-.1 0-.2.2-.2h1V193.8l.1.1c.6-.8 1.4-1.1 2.5-1.1z"/><path stroke="#FFDA59" stroke-width="2" d="M264 142h21a5 5 0 015 5v29"/><rect width="10" height="10" x="285.5" y="170.5" fill="white" stroke="#FFDA59" rx="5"/><rect width="135" height="40" x="410.5" y="338.5" fill="#603AD1" stroke="#603AD1" rx="2.5"/><rect width="53" height="53" x="379.5" y="332.5" fill="white" stroke="#603AD1" rx="26.5"/><path stroke="#FD6559" stroke-width="2" d="M335 197h21a5 5 0 015 5v29"/><path stroke="#198BDD" stroke-width="2" d="M409 250h22a5 5 0 015 5v29"/><path stroke="#603AD1" stroke-width="2" d="M475 304h21a5 5 0 015 5v29"/><rect width="10" height="10" x="356.5" y="225.5" fill="white" stroke="#FD6559" rx="5"/><rect width="10" height="10" x="430.5" y="280.5" fill="white" stroke="#198BDD" rx="5"/><rect width="10" height="10" x="496.5" y="332.5" fill="white" stroke="#603AD1" rx="5"/><path stroke="#33A9FF" d="M40 72h-3a1 1 0 00-1 1v33c0 .6.4 1 1 1h26c.6 0 1-.4 1-1V73c0-.6-.4-1-1-1h-3m-20 0v31.5c0 .6.4 1 1 1h15M40 72h20m-4 32.5l4-4m-4 4v-3c0-.6.4-1 1-1h3m0 0V72m-12.6-2H52m-4.6 0H46a1 1 0 00-1 1v2c0 .6.4 1 1 1h7.5c.6 0 1-.4 1-1v-2c0-.6-.4-1-1-1H52m-4.6 0v-1c0-.6.4-1 1-1H51c.6 0 1 .4 1 1v1"/><path fill="white" d="M45.5 72.5v-1H54v1h-8.5zM47.9 71v-2h3.6v2h-3.6z"/><rect width="4" height="4" x="42.5" y="78.5" fill="white" stroke="#33A9FF" rx=".5"/><rect width="4" height="4" x="42.5" y="85.5" fill="white" stroke="#33A9FF" rx=".5"/><rect width="4" height="4" x="42.5" y="92.5" fill="white" stroke="#33A9FF" rx=".5"/><path stroke="#42C657" d="M117.5 130a10.5 10.5 0 110 21 10.5 10.5 0 010-21z"/><path stroke="#42C657" stroke-width=".3" d="M117.5 131a9.5 9.5 0 110 19 9.5 9.5 0 010-19z"/><rect width="3" height="4" x="112" y="140" fill="#42C657" rx="1"/><rect width="3" height="6" x="116" y="138" fill="#42C657" rx="1"/><rect width="3" height="8" x="120" y="136" fill="#42C657" rx="1"/><path stroke="#FFDA59" stroke-width="2" d="M195.5 188l7.5-3m-7.5 3v8m0-8l-7.5-3m15 0l-7.5-3-7.5 3m15 0v8l-7.5 3m0 0l-7.5-3v-8M205 202.6l7-2.8m-7 2.8v7.4m0-7.4l-7-2.8m14 0v7.4l-7 2.8m7-10.2l-7-2.8-7 2.8m7 10.2l-7-2.8v-7.4M186 202.6l7-2.8m-7 2.8v7.4m0-7.4l-7-2.8m14 0v7.4l-7 2.8m7-10.2l-7-2.8-7 2.8m7 10.2l-7-2.8v-7.4"/><path stroke="#FD6559" stroke-linecap="round" d="M261 239h-6a2 2 0 00-2 2v17m24.5 4H272m8.5 0h2.5a2 2 0 002-2v-2m-21.5-19H283a2 2 0 012 2v17m-32 0v2c0 1.1.9 2 2 2h12m-14-4h32m-28-16v14m6-14l-1.5 1.5 1.5 1.5m5-3l1.5 1.5-1.5 1.5m-1.5-3l-2 3m-3.5 3h4m2 0h2m-8 3h10m1.5 0h2m1.5 0h4m-19 2h4m1.5 0h9m1.5 0h3m-13 9l-2 4.5m2-4.5h5m0 0l2 4.5m-13 0h15.5"/><path fill="#198BDD" d="M348 317.5h-27v1h27v-1zm-31-3h1v-1h-1v1zm1.5-.5v-21h-1v21h1zm.5-21.5h31v-1h-31v1zm-1 22h33v-1h-33v1zm33 0h1v-1h-1v1zm-.5-21.5v21h1v-21h-1zm-31 2v15.5h1V295h-1zm1.5 17h27v-1h-27v1zm28.5-1.5V295h-1v15.5h1zm-1.5-17h-27v1h27v-1zm1.5 1.5c0-.8-.7-1.5-1.5-1.5v1c.3 0 .5.2.5.5h1zm-1.5 17c.8 0 1.5-.7 1.5-1.5h-1c0 .3-.2.5-.5.5v1zm-28.5-1.5c0 .8.7 1.5 1.5 1.5v-1a.5.5 0 01-.5-.5h-1zm30.5-18c.3 0 .5.2.5.5h1c0-.8-.7-1.5-1.5-1.5v1zm-31.5.5c0-.3.2-.5.5-.5v-1c-.8 0-1.5.7-1.5 1.5h1zm2 2c0-.3.2-.5.5-.5v-1c-.8 0-1.5.7-1.5 1.5h1zm.5 22.5c-2 0-3.5-1.6-3.5-3.5h-1c0 2.5 2 4.5 4.5 4.5v-1zm30.5-3.5c0 2-1.6 3.5-3.5 3.5v1c2.5 0 4.5-2 4.5-4.5h-1z"/><circle cx="335" cy="293" r="4" fill="white"/><path fill="#198BDD" d="M341 293.7v-1.4-.2h-.6l-.2-.1v-.2l-.7-1.6a.3.3 0 010-.3l.2-.2a.3.3 0 000-.4l-1-1a.3.3 0 00-.4 0l-.2.2a.2.2 0 01-.3 0c-.5-.3-1-.5-1.6-.6a.3.3 0 01-.2-.3v-.3a.3.3 0 00-.3-.3h-1.4a.3.3 0 00-.2 0 .3.3 0 00-.1.3v.3a.3.3 0 01-.2.3c-.6.1-1 .3-1.6.6H332l-.2-.2a.3.3 0 00-.4 0l-1 1a.3.3 0 000 .4l.2.2a.2.2 0 010 .3c-.3.5-.5 1-.6 1.6l-.1.1-.2.1h-.3a.3.3 0 00-.3.3V293.9l.3.1h.5v.2l.7 1.6a.3.3 0 010 .3l-.2.2a.3.3 0 000 .4l1 1a.3.3 0 00.4 0l.2-.2H332.2c.5.3 1 .5 1.6.6a.3.3 0 01.2.3v.3a.3.3 0 00.3.3H335.9v-.6l.1-.2h.2l1.6-.7a.3.3 0 01.3 0l.2.2a.3.3 0 00.4 0l1-1a.3.3 0 000-.4l-.2-.2a.2.2 0 010-.3c.3-.5.5-1 .6-1.6l.1-.1.2-.1h.4a.3.3 0 00.2-.3zm-6.3 2.4a3 3 0 11.6-6.1 3 3 0 01-.6 6z"/><path stroke="#603AD1" d="M406 359.7v-1.4-.2h-.6l-.2-.1v-.2l-.7-1.6a.3.3 0 010-.3l.2-.2a.3.3 0 000-.4l-1-1a.3.3 0 00-.4 0l-.2.2a.2.2 0 01-.3 0c-.5-.3-1-.5-1.6-.6a.3.3 0 01-.2-.3v-.3a.3.3 0 00-.3-.3h-1.4a.3.3 0 00-.2 0 .3.3 0 00-.1.3v.3a.3.3 0 01-.2.3c-.6.1-1 .3-1.6.6H397l-.2-.2a.3.3 0 00-.4 0l-1 1a.3.3 0 000 .4l.2.2a.2.2 0 010 .3c-.3.5-.5 1-.6 1.6l-.1.1-.2.1h-.3a.3.3 0 00-.3.3V359.9l.3.1h.5v.2l.7 1.6a.3.3 0 010 .3l-.2.2a.3.3 0 000 .4l1 1a.3.3 0 00.4 0l.2-.2H397.2c.5.3 1 .5 1.6.6a.3.3 0 01.2.3v.3a.3.3 0 00.3.3H400.9v-.6l.1-.2h.2l1.6-.7a.3.3 0 01.3 0l.2.2a.3.3 0 00.4 0l1-1a.3.3 0 000-.4l-.2-.2a.2.2 0 010-.3c.3-.5.5-1 .6-1.6l.1-.1.2-.1h.4a.3.3 0 00.2-.3zm-6.3 2.4a3 3 0 11.6-6.1 3 3 0 01-.6 6zM413 365v-1s0 0 0 0h-.4v-.1h-.1c0-.4-.2-.7-.4-1v-.1-.1l.2-.1a.2.2 0 000-.3l-.6-.6a.2.2 0 00-.3 0l-.1.2s0 0 0 0h-.2a3 3 0 00-.9-.4s0 0 0 0l-.1-.1v-.2a.2.2 0 00-.2-.2h-.8s0 0 0 0a.2.2 0 00-.2.1s0 0 0 0v.3s0 0 0 0l-.1.1a3 3 0 00-1 .4s0 0 0 0h-.1l-.1-.2a.2.2 0 00-.3 0l-.6.6V362.6l.2.1s0 0 0 0v.2a3 3 0 00-.4.9s0 0 0 0l-.1.1h-.2a.2.2 0 00-.2.2v.8a.2.2 0 00.2.2h.2s0 0 0 0l.1.1c0 .3.2.6.4 1a.2.2 0 010 .1l-.2.1a.2.2 0 000 .3l.6.6H407.6v-.2h.2s0 0 0 0l1 .4s0 0 0 0l.1.1v.4h1a.2.2 0 00.2-.2v-.2s0 0 0 0v-.1a3 3 0 001-.4h.1s0 0 0 0l.2.2a.2.2 0 00.3 0l.6-.6v-.1-.2l-.2-.1s0 0 0 0v-.2l.4-.9s0 0 0 0l.1-.1h.2s0 0 0 0h.1v-.1h.1zm-3.7 1.3a1.8 1.8 0 01-1.5-2.3 1.8 1.8 0 011.4-1.3 1.8 1.8 0 011.5 3.1 1.8 1.8 0 01-1.4.5zM416 356.9l.3-1.2v-.1-.2h-.4v-.2s-.1 0 0-.1l-.1-1.4a.2.2 0 01.1-.3h.3a.2.2 0 000-.4l-.4-1-.1-.2h-.2l-.3.1a.2.2 0 01-.2 0l-1-1-.1-.1v-.5c.1 0 .1 0 0-.1v-.2l-1.2-.4a.2.2 0 00-.1 0h-.1v.1l-.2.3v.1H410.6h-.2s0 0 0 0l-.2-.3a.2.2 0 00-.3-.1l-1 .4-.2.2v.2l.1.2V351c-.4.3-.8.6-1 1a.2.2 0 01-.3 0h-.3a.2.2 0 00-.3.1l-.4 1.1v.2l.1.1.3.1.1.1V355.3a.2.2 0 010 .2l-.3.1a.2.2 0 00-.1.3l.4 1.1.2.2h.2l.2-.2a.2.2 0 01.3.1c.2.4.6.7 1 1a.2.2 0 010 .2v.3a.2.2 0 00.1.3l1.1.4H410.5l.1-.4a.2.2 0 01.2 0l1.5-.1h.1l.1.1.1.3h.1c.1.1.2.1.2 0l1.1-.4.1-.1v-.5c-.1 0-.1 0 0-.1v-.1l1-1a.2.2 0 01.2-.1h.3v.1h.2s0 0 0 0l.1-.1zm-5.7-.2a2.5 2.5 0 01-.9-3.7 2.6 2.6 0 11.9 3.7z"/><path fill="#603AD1" d="M419.3 348c.3 0 .6-.1.6-.4l.6-4.5a.5.5 0 10-1 0l-.5 3.9-4-.5c-.3 0-.5.2-.6.4 0 .3.2.6.5.6l4.4.5zm-11-6.8v.5-.5zm-12.3 3l-.3-.3.3.4zm-6.7 10.9l-.5-.1h.5zm30.5-7.9c-2.8-3.5-6.9-5.9-11.4-6.5l-.1 1c4.2.6 8 2.8 10.7 6.2l.8-.7zm-11.4-6.5c-4.5-.7-9 .5-12.7 3.2l.6.8c3.5-2.6 7.8-3.6 12-3l.1-1zm-12.7 3.2a17.5 17.5 0 00-7 11l1 .3c.8-4.3 3.1-8 6.6-10.5l-.6-.8zm-7 11c-.7 4.6.3 9.2 2.8 13l.8-.6a16.5 16.5 0 01-2.6-12.1l-1-.2zM393 368.5c-.2 0-.5.2-.5.4l-.5 4.5a.5.5 0 101 .1l.4-4 4 .5a.5.5 0 10.1-1l-4.4-.5zm11 6.9l.1-.5v.5zm12.4-3.1l.3.4-.3-.4zm6.8-10.8h.4-.4zm-30.6 7.8c2.8 3.6 6.9 6 11.4 6.6l.1-1c-4.2-.6-8-2.8-10.7-6.2l-.8.6zM404 376c4.5.6 9-.5 12.7-3.2l-.6-.8a16.5 16.5 0 01-12 3l-.1 1zm12.7-3.2c3.7-2.7 6.2-6.7 7-11.1l-1-.2c-.8 4.2-3.1 8-6.6 10.5l.6.8zm7-11.1c.7-4.5-.3-9.1-2.8-12.9l-.8.6c2.4 3.5 3.3 7.9 2.6 12l1 .3z"/><path fill="#384C72" d="M203 30.2c.2 0 .3 0 .3.2V32c0 .1-.1.2-.3.2h-4.6v14.6c0 .1-.1.2-.3.2h-1.8c-.2 0-.3 0-.3-.2V32.3h-4.5l-.2-.3v-1.6c0-.1 0-.2.2-.2H203zm8.3 4.4c1.3 0 2.3.4 3.1 1.2.8.7 1.2 1.7 1.2 3v8c0 .1-.1.2-.3.2h-1.8c-.2 0-.2 0-.2-.2v-7.5c0-.8-.3-1.5-.7-2-.5-.4-1.1-.7-1.9-.7-.7 0-1.3.3-1.8.8-.5.4-.7 1-.7 1.9v7.5c0 .1-.1.2-.3.2h-1.8c-.2 0-.3 0-.3-.2V30.4c0-.1.1-.2.3-.2h1.8c.2 0 .3 0 .3.2V36c.7-.8 1.8-1.3 3.1-1.3zm17.3 4.8v2.2c0 .1 0 .2-.2.2h-7.6l-.1.1.1 1.3c.2.6.6 1.1 1 1.5.6.3 1.3.5 2.1.5a3 3 0 002.8-1.5h.3l1.3.9c.2 0 .2.2.1.3-.4.7-1 1.3-2 1.7a6 6 0 01-2.7.6c-1.2 0-2.1-.2-3-.8a4.7 4.7 0 01-1.7-2.1c-.4-1-.6-2.1-.6-3.5 0-1.1 0-2 .2-2.6.3-1.1 1-2 1.8-2.6.8-.7 1.9-1 3.1-1 1.6 0 2.8.4 3.6 1.2.8.8 1.3 2 1.5 3.6zm-5-2.8c-.8 0-1.3.2-1.8.5-.4.3-.7.8-.9 1.4l-.2 1.3v.1h5.6v-1.3c-.2-.6-.6-1-1-1.4-.5-.4-1-.6-1.8-.6zM240 47c-.1 0-.2 0-.3-.2l-4.5-16.3v-.1c0-.1 0-.2.2-.2h2c.1 0 .2 0 .3.2l3.1 12h.1l3-12c0-.1.1-.2.3-.2h1.9c.1 0 .2 0 .2.2l3.2 12 3.2-12c0-.1.1-.2.3-.2h2v.3l-4.3 16.3c0 .1-.1.2-.3.2h-1.8c-.2 0-.3 0-.3-.2l-3.1-12.4h-.1l-3 12.4-.3.2H240zm20.6-12.4c1 0 1.8.2 2.5.5.8.4 1.3.8 1.7 1.5.4.6.6 1.3.6 2v8.2c0 .1 0 .2-.2.2h-1.9c-.1 0-.2 0-.2-.2v-.9s0-.1-.1 0c-.4.4-1 .7-1.6 1-.5.2-1.2.3-2 .3-1.1 0-2.1-.3-2.9-.9-.8-.6-1.2-1.5-1.2-2.7 0-1.3.5-2.3 1.3-3 1-.7 2.1-1 3.7-1h2.7l.1-.1v-.7c0-.7-.2-1.2-.6-1.6-.4-.4-1-.6-1.9-.6a3 3 0 00-1.6.4c-.4.2-.7.6-.8 1 0 .2-.1.3-.3.3l-2-.3s-.2-.1-.1-.2c0-1 .6-1.7 1.5-2.3.8-.6 2-1 3.3-1zm-.6 10.6c.8 0 1.5-.2 2.2-.6.6-.5.9-1 .9-1.7v-1.4l-.1-.1h-2.3a4 4 0 00-2.2.5c-.6.4-.8.9-.8 1.5s.2 1 .6 1.4c.4.3 1 .4 1.7.4zm14.4-8.8c0 .2-.1.3-.3.3h-2.6v6.4c0 .7.1 1.2.4 1.5.3.3.8.4 1.4.4h.7c.2 0 .3.1.3.3v1.5c0 .1-.1.2-.3.2h-1c-1.3 0-2.2-.2-2.9-.6-.6-.4-.9-1.3-.9-2.4v-7.2-.1h-1.5c-.2 0-.3-.1-.3-.3V35c0-.1.1-.2.3-.2h1.4l.1-.1v-2.8c0-.2.1-.3.3-.3h1.7c.2 0 .2.1.2.3v2.8h2.7c.2 0 .3.2.3.3v1.4zm12.4 3v2.2c0 .1 0 .2-.2.2h-7.6l-.1.1.1 1.3c.2.6.6 1.1 1.1 1.5.5.3 1.2.5 2 .5a3 3 0 002.8-1.5h.3l1.4.9v.3c-.4.7-1 1.3-1.9 1.7a6 6 0 01-2.8.6c-1.1 0-2.1-.2-3-.8a4.7 4.7 0 01-1.7-2.1c-.4-1-.6-2.1-.6-3.5 0-1.1 0-2 .3-2.6.2-1.1.8-2 1.7-2.6.8-.7 1.9-1 3.1-1 1.6 0 2.9.4 3.7 1.2.8.8 1.2 2 1.4 3.6zm-5-2.8c-.8 0-1.3.2-1.8.5-.4.3-.7.8-.9 1.4l-.2 1.3v.1h5.6v-1.3c-.2-.6-.5-1-1-1.4-.5-.4-1-.6-1.8-.6zm13.3-2c.6 0 1 .2 1.4.4.2 0 .2.1.2.3l-.4 1.8c0 .1-.1.2-.3.1l-1-.2h-.3c-.8.1-1.4.4-1.9.9-.5.4-.7 1-.7 1.9v7c0 .1 0 .2-.2.2H290c-.1 0-.2 0-.2-.2V35c0-.1 0-.2.2-.2h1.9c.1 0 .2 0 .2.2v1.3h.1a3.3 3.3 0 013-1.6zm9.2-2.4c-.8 0-1.3.2-1.6.5-.3.3-.4.9-.4 1.7v.3h2.6l.2.3v1.7c0 .1 0 .2-.2.2h-2.6v9.9c0 .1-.1.2-.3.2h-1.8c-.2 0-.2 0-.2-.2V37l-.1-.1h-1.6c-.2 0-.3 0-.3-.2V35c0-.1.1-.2.3-.2h1.6v-.5c0-1.1.2-2 .4-2.5.3-.6.7-1 1.3-1.2.6-.3 1.4-.4 2.5-.4h.8c.2 0 .3 0 .3.2V32c0 .1-.1.2-.3.2h-.6zm7.6 2.4c1 0 1.8.2 2.6.5.7.4 1.2.8 1.6 1.5.4.6.6 1.3.6 2v8.2c0 .1 0 .2-.2.2h-1.8c-.2 0-.3 0-.3-.2v-.9s0-.1 0 0l-1.6 1c-.6.2-1.3.3-2 .3-1.2 0-2.2-.3-3-.9-.7-.6-1.1-1.5-1.1-2.7 0-1.3.4-2.3 1.3-3 .9-.7 2-1 3.6-1h2.7l.1-.1v-.7c0-.7-.2-1.2-.6-1.6-.4-.4-1-.6-1.8-.6a3 3 0 00-1.7.4c-.4.2-.7.6-.8 1 0 .2-.1.3-.3.3l-1.9-.3c-.2 0-.2-.1-.2-.2.1-1 .6-1.7 1.5-2.3.9-.6 2-1 3.3-1zm-.6 10.6c.8 0 1.6-.2 2.2-.6.6-.5 1-1 1-1.7v-1.4l-.2-.1h-2.2a4 4 0 00-2.3.5c-.5.4-.8.9-.8 1.5s.2 1 .6 1.4c.4.3 1 .4 1.7.4zm8.8 1.8c-.2 0-.3 0-.3-.2V30.4c0-.1.1-.2.3-.2h1.8c.2 0 .2 0 .2.2v16.4c0 .1 0 .2-.2.2h-1.8zm5.6 0c-.1 0-.2 0-.2-.2V30.4c0-.1 0-.2.2-.2h1.9c.1 0 .2 0 .2.2v16.4c0 .1 0 .2-.2.2h-1.9zm21.4-16.7l.3-.1h1.8c.2 0 .3 0 .3.2v16.4c0 .1-.1.2-.3.2h-1.8c-.2 0-.2 0-.2-.2V34.5l-.1-.1-3.5 5.3-.3.1h-.9l-.3-.1-3.4-5.2h-.1v12.3c0 .1-.1.2-.3.2h-1.8c-.2 0-.3 0-.3-.2V30.4c0-.1.1-.2.3-.2h1.8l.3.1 4.2 6.3h.1l4.2-6.3zm11 16.9c-1.2 0-2.2-.3-3.1-.9a4.8 4.8 0 01-1.9-2.5c-.2-.9-.4-1.9-.4-3 0-1 .2-2 .4-2.8.4-1 1-1.9 1.9-2.5.9-.6 1.9-1 3.1-1a5 5 0 014.9 3.5c.3.8.4 1.7.4 2.8 0 1.2-.1 2.1-.4 3a4.8 4.8 0 01-5 3.4zm0-2c.6 0 1.2-.2 1.7-.5a3 3 0 001-1.6 8.7 8.7 0 000-4.5c-.2-.6-.5-1.1-1-1.5-.5-.3-1-.5-1.8-.5-.6 0-1.2.2-1.7.5-.4.4-.8.9-1 1.5-.2.6-.3 1.4-.3 2.3 0 1 .1 1.7.3 2.2.2.7.5 1.2 1 1.6.5.3 1.1.5 1.8.5zM374 30.4c0-.1 0-.2.2-.2h1.9c.1 0 .2 0 .2.2v16.4c0 .1 0 .2-.2.2h-1.9c-.1 0-.2 0-.2-.2V46v-.1h-.1a3.8 3.8 0 01-2.8 1.3c-1.2 0-2.1-.3-3-.8a5 5 0 01-1.6-2.5c-.3-.8-.4-1.8-.4-3s.1-2.1.4-3c.3-1 .8-1.8 1.6-2.4a4.7 4.7 0 014.5-.6c.5.2 1 .5 1.3 1l.1-.1v-5.4zm-.6 13.5c.4-.7.5-1.7.5-3 0-1.4-.2-2.4-.6-3a2.2 2.2 0 00-2-1.3c-1 0-1.7.4-2.1 1.1-.5.8-.8 1.9-.8 3.2 0 1.2.2 2.2.6 3 .5.9 1.2 1.3 2.3 1.3 1 0 1.6-.4 2.1-1.3zm16.2-4.5v2.2c0 .1 0 .2-.2.2h-7.7V43.2c.3.6.6 1.1 1.1 1.5.6.3 1.3.5 2 .5a3 3 0 002.8-1.5h.3l1.4.9v.3c-.4.7-1 1.3-1.8 1.7a6 6 0 01-2.8.6c-1.2 0-2.2-.2-3-.8a4.7 4.7 0 01-1.8-2.1c-.4-1-.6-2.1-.6-3.5 0-1.1.1-2 .3-2.6.3-1.1.9-2 1.7-2.6.9-.7 2-1 3.2-1 1.6 0 2.8.4 3.6 1.2.8.8 1.3 2 1.5 3.6zm-5.1-2.8c-.7 0-1.3.2-1.7.5-.5.3-.8.8-1 1.4l-.2 1.3.1.1h5.6l-.1-1.3c-.2-.6-.5-1-1-1.4-.4-.4-1-.6-1.7-.6zm8.3 10.4c-.2 0-.3 0-.3-.2V30.4c0-.1.1-.2.3-.2h1.8c.2 0 .2 0 .2.2v16.4c0 .1 0 .2-.2.2H393z"/><path fill="white" d="M178.3 147l-.2-.1-.7-2.3H172h-.1l-.7 2.3-.3.1h-1s-.1 0 0-.2l4-12.3.1-.1h1.3l.2.1 4 12.3c0 .2 0 .2-.2.2h-1zm-6-3.6h4.7l-2.3-7.3h-.1l-2.4 7.3zm13-5.6c1 0 1.8.2 2.3.8.6.6.9 1.3.9 2.3v6l-.2.1h-1v-5.9c0-.6-.3-1.2-.7-1.6a2 2 0 00-1.6-.6c-.6 0-1.1.2-1.6.6-.4.4-.6 1-.6 1.6v5.7l-.1.2h-1l-.1-.2v-8.7l.1-.2h1l.1.2V138.9h.1c.5-.8 1.3-1.1 2.4-1.1zm9.1 0c1 0 2 .2 2.5.8.6.5.9 1.3.9 2.2v6c0 .1 0 .2-.2.2h-.9c-.1 0-.2 0-.2-.2v-.7l-1.2.8c-.5.2-1 .2-1.6.2-.9 0-1.6-.2-2.2-.6-.6-.4-.9-1.1-.9-2 0-.9.4-1.6 1-2.1.7-.5 1.6-.8 2.8-.8h2.1v-.8c0-.6-.2-1-.5-1.4-.3-.4-.9-.5-1.6-.5-.6 0-1 0-1.4.3-.4.2-.6.5-.7 1 0 0 0 .1-.2 0h-1l-.1-.2c0-.7.4-1.2 1-1.6.7-.4 1.5-.7 2.4-.7zm-.5 8.2c.7 0 1.3-.1 1.8-.5.6-.3.8-.8.8-1.4v-1.4h-2c-.7 0-1.4 0-1.9.4-.4.3-.7.8-.7 1.3 0 .6.2 1 .6 1.3.3.2.8.3 1.4.3zm6.7 1l-.1-.2v-12.2l.1-.2h1l.1.2v12.2l-.1.2h-1zm3.6 3.6l-.1-.2v-.7l.1-.2h.1c.5 0 .8 0 1-.2.4-.1.6-.4.8-.7a8.2 8.2 0 00.6-1.7l-3-8.8v-.2h1l.2.1 2.4 7.3 2.4-7.3.2-.1h1s.1 0 0 .2l-3.2 9.7-.8 1.8a2 2 0 01-1 .8l-1.6.2h-.1zm11.1-3.5l-1.8-.3a3 3 0 01-1.2-.9 2 2 0 01-.4-1.2v-.2c0-.1 0-.2.2-.2h.8c.2 0 .2 0 .2.2v.1c0 .4.2.8.6 1 .5.4 1 .5 1.6.5.6 0 1.1-.1 1.5-.4.4-.3.6-.7.6-1a1 1 0 00-.3-.8 2 2 0 00-.7-.5l-1.3-.4-1.6-.6c-.4-.2-.8-.4-1.1-.8a2 2 0 01-.4-1.3c0-.7.3-1.4.9-1.8.6-.5 1.3-.7 2.3-.7.7 0 1.3.1 1.8.3.5.2.9.5 1.2 1 .2.3.4.7.4 1.2 0 .2 0 .2-.2.2h-.8c-.2 0-.2 0-.2-.2 0-.4-.2-.8-.6-1-.4-.3-1-.5-1.6-.5-.6 0-1 .2-1.5.4-.3.3-.5.6-.5 1s.2.8.5 1l1.7.6 1.7.6c.4.2.8.4 1.1.8.3.3.5.8.5 1.3 0 .8-.3 1.4-1 1.9-.6.5-1.4.7-2.4.7zm6.6-10.9a1 1 0 01-1-1c0-.3 0-.5.2-.7.2-.2.5-.3.8-.3.3 0 .5.1.7.3.2.2.3.4.3.7a1 1 0 01-1 1zm-.5 10.8c-.2 0-.2 0-.2-.2v-8.7c0-.2 0-.2.2-.2h.9c.1 0 .2 0 .2.2v8.7l-.2.2h-1zm7.2 0c-.7 0-1.3 0-1.8-.2a3 3 0 01-1.2-.9 2 2 0 01-.4-1.2v-.2l.1-.2h.9c.1 0 .2 0 .2.2v.1c0 .4.2.8.6 1 .4.4 1 .5 1.6.5.6 0 1-.1 1.5-.4.4-.3.5-.7.5-1a1 1 0 00-.3-.8 2 2 0 00-.7-.5l-1.2-.4-1.7-.6c-.4-.2-.8-.4-1-.8a2 2 0 01-.5-1.3c0-.7.3-1.4 1-1.8.5-.5 1.3-.7 2.3-.7.6 0 1.2.1 1.7.3.6.2 1 .5 1.2 1 .3.3.4.7.4 1.2l-.1.2h-.9c-.1 0-.2 0-.2-.2 0-.4-.2-.8-.6-1-.3-.3-.9-.5-1.5-.5s-1.1.2-1.5.4c-.4.3-.6.6-.6 1s.2.8.6 1l1.7.6 1.6.6c.5.2.8.4 1.2.8.3.3.4.8.4 1.3 0 .8-.3 1.4-.9 1.9-.6.5-1.4.7-2.4.7zM449.8 364.1c-.9 0-1.6-.1-2.3-.5-.6-.3-1.1-.8-1.5-1.4-.3-.7-.5-1.4-.5-2.2v-4.6c0-.8.2-1.5.5-2.1.4-.7.9-1.2 1.5-1.5.7-.4 1.4-.5 2.3-.5.8 0 1.6.1 2.2.5.7.3 1.2.8 1.6 1.5.3.6.5 1.3.5 2.1v4.6c0 .8-.2 1.5-.5 2.2-.4.6-.9 1-1.6 1.4-.6.4-1.4.5-2.2.5zm0-1a3 3 0 002.2-.9 3 3 0 00.8-2.2v-4.6a3 3 0 00-.8-2.2 3 3 0 00-2.2-.8 3 3 0 00-2.2.8 3 3 0 00-.8 2.2v4.6c0 1 .3 1.7.8 2.2a3 3 0 002.2.8zm14.1-6c.2.6.3 1.4.3 2.3 0 1 0 1.8-.2 2.3-.3.7-.6 1.4-1.2 1.8-.6.4-1.3.6-2.2.6a2.7 2.7 0 01-2.3-1v4.2l-.2.2h-1l-.1-.2v-12.2c0-.1 0-.2.2-.2h.9c.1 0 .2 0 .2.2v.7a2.8 2.8 0 012.3-1c.9 0 1.6.2 2.1.6.6.4 1 1 1.2 1.8zm-1.4 4.6l.3-.9.1-1.4v-1.3a3 3 0 00-.3-.8 2 2 0 00-.8-1c-.4-.3-.8-.4-1.3-.4s-.9 0-1.2.3c-.3.3-.6.6-.7 1l-.3.9a9.8 9.8 0 00.3 3.6c.1.4.4.7.7 1 .3.2.7.3 1.2.3a2.1 2.1 0 002-1.3zm11.1-3.8l.1 1.3v.6l-.2.1h-5.8V361.3c.2.5.5 1 1 1.3.3.3.9.4 1.6.4.5 0 1 0 1.3-.3.4-.2.7-.6.9-1 0 0 .1-.1.2 0l.7.4c.1 0 .2.1.1.2-.3.6-.7 1-1.3 1.4-.6.3-1.3.5-2.1.5-.9 0-1.6-.3-2.1-.6-.6-.4-1-1-1.3-1.7-.2-.6-.3-1.4-.3-2.5a33.2 33.2 0 01.2-2c.2-.9.6-1.5 1.2-2 .6-.4 1.4-.7 2.2-.7 1.1 0 2 .3 2.5.9.6.5 1 1.3 1.1 2.3zm-3.6-2c-.6 0-1 .1-1.4.4-.4.3-.7.7-.8 1.3l-.1 1.2h4.7v-1.2c-.2-.5-.5-1-.9-1.3-.4-.3-.9-.4-1.5-.4zm10-1.1c.3 0 .7 0 1 .2v.3l-.1.9h-1.2c-.6 0-1.1.2-1.6.7-.4.4-.6 1-.6 1.6v5.3l-.1.2h-1l-.1-.2v-8.7l.1-.2h1l.1.2v1.1h.1c.3-.4.6-.8 1-1 .4-.3.8-.4 1.3-.4zm6 0c1 0 1.8.2 2.4.8.6.5 1 1.3 1 2.2v6c0 .1-.1.2-.3.2h-.9c-.1 0-.2 0-.2-.2v-.7c-.4.3-.7.6-1.2.8-.5.2-1 .2-1.6.2-.9 0-1.6-.2-2.2-.6-.5-.4-.8-1.1-.8-2 0-.9.3-1.6 1-2.1.6-.5 1.5-.8 2.7-.8h2.1v-.8c0-.6-.1-1-.5-1.4-.3-.4-.9-.5-1.6-.5-.5 0-1 0-1.4.3-.3.2-.6.5-.6 1h-1.3s-.1-.1 0-.2c0-.7.4-1.2 1-1.6.6-.4 1.4-.7 2.3-.7zm-.6 8.2c.7 0 1.3-.1 1.9-.5.5-.3.7-.8.7-1.4v-1.4h-2c-.7 0-1.4 0-1.8.4-.5.3-.8.8-.8 1.3 0 .6.2 1 .6 1.3.4.2.8.3 1.4.3zm10.6-7.2s0 .2-.2.2h-2-.1v5.3c0 .6.1 1 .4 1.3.2.2.7.3 1.2.3h.5l.1.2v.7l-.1.2h-.7c-.9 0-1.5-.1-2-.5-.4-.3-.6-.9-.6-1.8V356H491.3l-.2-.2v-.7c0-.1 0-.2.2-.2h1.2v-2.2l.1-.1h1l.1.1v2.1h2.1l.2.3v.7zm3.3-2.6a1 1 0 01-1-1c0-.3.1-.5.3-.7.2-.2.4-.3.7-.3.3 0 .6.1.7.3.2.2.3.4.3.7a1 1 0 01-1 1zm-.5 10.8c-.1 0-.2 0-.2-.2v-8.7c0-.2.1-.2.2-.2h1l.1.2v8.7c0 .1 0 .2-.2.2h-.9zm7.7.1c-.8 0-1.6-.2-2.2-.6-.6-.5-1-1-1.3-1.9-.2-.5-.3-1.2-.3-2.2 0-.9.1-1.6.3-2.2.2-.7.6-1.3 1.3-1.8.6-.4 1.4-.7 2.2-.7.9 0 1.6.3 2.2.7.7.5 1 1 1.3 1.8.2.5.3 1.3.3 2.2 0 1-.1 1.7-.3 2.2-.2.8-.6 1.4-1.3 1.9-.6.4-1.3.6-2.2.6zm0-1c.6 0 1-.2 1.5-.5.4-.4.7-.8.8-1.3l.2-1.9c0-.7 0-1.4-.2-1.8-.1-.5-.4-1-.8-1.3-.4-.3-1-.4-1.5-.4a2.3 2.3 0 00-2.3 1.7l-.2 1.8c0 .8 0 1.4.2 1.9.1.5.4 1 .8 1.3.4.3 1 .4 1.5.4zm10.1-8.3c1 0 1.8.2 2.3.8.6.6.9 1.3.9 2.3v6l-.2.1h-1v-5.9c0-.6-.3-1.2-.7-1.6a2 2 0 00-1.6-.6c-.6 0-1.1.2-1.6.6-.4.4-.6 1-.6 1.6v5.7l-.1.2h-1l-.1-.2v-8.7l.1-.2h1l.1.2V355.9h.1c.5-.8 1.3-1.1 2.4-1.1zm9 9.3c-.7 0-1.3-.1-1.9-.3a3 3 0 01-1.2-.9 2 2 0 01-.4-1.2v-.2c0-.1 0-.2.2-.2h.9s.2 0 .2.2v.1c0 .4.2.8.6 1 .4.4.9.5 1.5.5.7 0 1.2-.1 1.5-.4.4-.3.6-.7.6-1a1 1 0 00-.3-.8 2 2 0 00-.7-.5l-1.2-.4-1.7-.6c-.4-.2-.8-.4-1-.8a2 2 0 01-.5-1.3c0-.7.3-1.4.9-1.8.6-.5 1.4-.7 2.4-.7.6 0 1.2.1 1.7.3.5.2 1 .5 1.2 1 .3.3.4.7.4 1.2 0 .2 0 .2-.2.2h-.8c-.1 0-.2 0-.2-.2 0-.4-.2-.8-.6-1-.4-.3-.9-.5-1.6-.5-.6 0-1 .2-1.4.4-.4.3-.6.6-.6 1s.2.8.5 1l1.7.6 1.7.6c.4.2.8.4 1.1.8.3.3.5.8.5 1.3 0 .8-.3 1.4-1 1.9-.5.5-1.3.7-2.4.7z"/><defs><filter id="filter0_d" width="586" height="414" x="0" y="0" color-interpolation-filters="sRGB" filterUnits="userSpaceOnUse"><feFlood flood-opacity="0" result="BackgroundImageFix"/><feColorMatrix in="SourceAlpha" values="0 0 0 0 0 0 0 0 0 0 0 0 0 0 0 0 0 0 127 0"/><feOffset dy="1"/><feGaussianBlur stdDeviation="3"/><feColorMatrix values="0 0 0 0 0.583333 0 0 0 0 0.583333 0 0 0 0 0.583333 0 0 0 0.25 0"/><feBlend in2="BackgroundImageFix" result="effect1_dropShadow"/><feBlend in="SourceGraphic" in2="effect1_dropShadow" result="shape"/></filter></defs></svg>